<?xml version="1.0" encoding="utf-8"?>
<!-- Generator: Adobe Illustrator 18.1.1, SVG Export Plug-In . SVG Version: 6.00 Build 0)  -->
<svg version="1.1" id="Layer_1" xmlns="http://www.w3.org/2000/svg" xmlns:xlink="http://www.w3.org/1999/xlink" x="0px" y="0px"
	 viewBox="0 0 50 50" enable-background="new 0 0 50 50" xml:space="preserve">
<g>
	<path fill="#263238" d="M35.6,14l-5.7,0.3c-0.2,0-0.4,0.2-0.4,0.4c0,0.2,0.2,0.4,0.4,0.4l4.6-0.2l-7.6,7.6c-0.2,0.2-0.2,0.4,0,0.6
		s0.4,0.2,0.6,0l7.6-7.6l-0.2,4.6c0,0.2,0.2,0.4,0.4,0.4c0.1,0,0.2,0,0.3-0.1c0.1-0.1,0.1-0.2,0.1-0.3l0.3-5.7c0-0.1,0-0.2-0.1-0.3
		C35.8,14,35.7,14,35.6,14z"/>
	<path fill="#263238" d="M14.4,36l5.7-0.3c0.2,0,0.4-0.2,0.4-0.4c0-0.2-0.2-0.4-0.4-0.4l-4.6,0.2l7.6-7.6c0.2-0.2,0.2-0.4,0-0.6
		s-0.4-0.2-0.6,0l-7.6,7.6l0.2-4.6c0-0.2-0.2-0.4-0.4-0.4c-0.1,0-0.2,0-0.3,0.1c-0.1,0.1-0.1,0.2-0.1,0.3L14,35.6
		c0,0.1,0,0.2,0.1,0.3C14.2,36,14.3,36,14.4,36z"/>
</g>
</svg>
