<?xml version="1.0" encoding="utf-8"?>
<!-- Generator: Adobe Illustrator 18.1.1, SVG Export Plug-In . SVG Version: 6.00 Build 0)  -->
<svg version="1.1" id="Layer_1" xmlns="http://www.w3.org/2000/svg" xmlns:xlink="http://www.w3.org/1999/xlink" x="0px" y="0px"
	 viewBox="0 0 50 50" enable-background="new 0 0 50 50" xml:space="preserve">
<g>
	<path fill="#78909C" d="M25,20.5c-2.5,0-4.5,2-4.5,4.5c0,2.5,2,4.5,4.5,4.5c2.5,0,4.5-2,4.5-4.5C29.5,22.5,27.5,20.5,25,20.5z
		 M25,28.7c-2,0-3.7-1.6-3.7-3.7c0-2,1.6-3.7,3.7-3.7c2,0,3.7,1.6,3.7,3.7C28.7,27,27,28.7,25,28.7z"/>
	<path fill="#78909C" d="M35.9,21.9l-2.6-0.3l1.6-2.1c0.1-0.2,0.1-0.4,0-0.5l-3.8-3.8c-0.1-0.1-0.4-0.2-0.5,0l-2.1,1.6l-0.3-2.6
		c0-0.2-0.2-0.4-0.4-0.4h-5.4c-0.2,0-0.4,0.2-0.4,0.4l-0.3,2.6l-2.1-1.6c-0.2-0.1-0.4-0.1-0.5,0l-3.8,3.8c-0.1,0.1-0.2,0.4,0,0.5
		l1.6,2.1l-2.6,0.3c-0.2,0-0.4,0.2-0.4,0.4v5.4c0,0.2,0.2,0.4,0.4,0.4l2.6,0.3l-1.6,2.1c-0.1,0.2-0.1,0.4,0,0.5l3.8,3.8
		c0.1,0.1,0.4,0.2,0.5,0l2.1-1.6l0.3,2.6c0,0.2,0.2,0.4,0.4,0.4h5.4c0.2,0,0.4-0.2,0.4-0.4l0.3-2.6l2.1,1.6c0.2,0.1,0.4,0.1,0.5,0
		l3.8-3.8c0.1-0.1,0.2-0.4,0-0.5l-1.6-2.1l2.6-0.3c0.2,0,0.4-0.2,0.4-0.4v-5.4C36.3,22.1,36.1,21.9,35.9,21.9z M35.5,27.3l-3,0.4
		c-0.1,0-0.3,0.1-0.3,0.2c-0.1,0.1,0,0.3,0.1,0.4l1.8,2.4l-3.3,3.3l-2.4-1.8c-0.1-0.1-0.3-0.1-0.4-0.1c-0.1,0.1-0.2,0.2-0.2,0.3
		l-0.4,3h-4.7l-0.4-3c0-0.1-0.1-0.3-0.2-0.3c-0.1-0.1-0.3,0-0.4,0.1l-2.3,1.8l-3.3-3.3l1.8-2.4c0.1-0.1,0.1-0.3,0.1-0.4
		c-0.1-0.1-0.2-0.2-0.3-0.2l-3-0.4v-4.7l3-0.4c0.1,0,0.3-0.1,0.3-0.2c0.1-0.1,0-0.3-0.1-0.4l-1.8-2.3l3.3-3.3l2.3,1.8
		c0.1,0.1,0.3,0.1,0.4,0.1c0.1-0.1,0.2-0.2,0.2-0.3l0.4-3h4.7l0.4,3c0,0.1,0.1,0.3,0.2,0.3c0.1,0.1,0.3,0,0.4-0.1l2.4-1.8l3.3,3.3
		l-1.8,2.3c-0.1,0.1-0.1,0.3-0.1,0.4c0.1,0.1,0.2,0.2,0.3,0.2l3,0.4V27.3z"/>
</g>
</svg>
