<?xml version="1.0" encoding="utf-8"?>
<!-- Generator: Adobe Illustrator 18.1.1, SVG Export Plug-In . SVG Version: 6.00 Build 0)  -->
<svg version="1.1" id="Layer_1" xmlns="http://www.w3.org/2000/svg" xmlns:xlink="http://www.w3.org/1999/xlink" x="0px" y="0px"
	 viewBox="0 0 50 50" enable-background="new 0 0 50 50" xml:space="preserve">
<g>
	<path fill="#B0BEC5" d="M33.3,22.2C33.2,22,33,21.9,32.7,22c-0.2,0.1-0.3,0.3-0.3,0.5c1,2.9,0.2,6-1.9,8.1c-3.1,3.1-8.1,3.1-11.2,0
		c-0.1-0.1-0.1-0.2-0.2-0.3l2.9,0c0.2,0,0.4-0.2,0.4-0.4c0-0.2-0.2-0.4-0.4-0.4l-3.6,0c-0.1-0.1-0.3-0.2-0.5,0c0,0,0,0,0,0h-0.2v4.3
		c0,0.2,0.2,0.4,0.4,0.4s0.4-0.2,0.4-0.4v-2.9c0.1,0.1,0.2,0.2,0.3,0.3c1.7,1.7,3.9,2.6,6.2,2.6c2.2,0,4.5-0.9,6.2-2.6
		C33.5,28.8,34.3,25.4,33.3,22.2z"/>
	<path fill="#B0BEC5" d="M19.4,19.4c3.1-3.1,8.1-3.1,11.2,0c0.1,0.1,0.1,0.2,0.2,0.3l-2.9,0c-0.2,0-0.4,0.2-0.4,0.4
		c0,0.2,0.2,0.4,0.4,0.4l3.6,0c0.1,0.1,0.3,0.2,0.5,0c0,0,0,0,0,0h0.2v-4.3c0-0.2-0.2-0.4-0.4-0.4c-0.2,0-0.4,0.2-0.4,0.4v2.9
		c-0.1-0.1-0.2-0.2-0.3-0.3c-3.4-3.4-9-3.4-12.4,0c-2.3,2.3-3.1,5.8-2.1,9c0.1,0.2,0.2,0.3,0.4,0.3c0,0,0.1,0,0.1,0
		c0.2-0.1,0.3-0.3,0.3-0.5C16.6,24.6,17.3,21.5,19.4,19.4z"/>
</g>
</svg>
