<?xml version="1.0" encoding="utf-8"?>
<!-- Generator: Adobe Illustrator 18.1.1, SVG Export Plug-In . SVG Version: 6.00 Build 0)  -->
<svg version="1.1" id="Layer_1" xmlns="http://www.w3.org/2000/svg" xmlns:xlink="http://www.w3.org/1999/xlink" x="0px" y="0px"
	 viewBox="0 0 50 50" enable-background="new 0 0 50 50" xml:space="preserve">
<g>
	<path fill="#B0BEC5" d="M16.6,17.8c0.6,0,1.1-0.5,1.1-1c0-0.6-0.5-1-1.1-1c-0.6,0-1,0.5-1,1C15.6,17.3,16.1,17.8,16.6,17.8z
		 M16.6,16.5c0.1,0,0.2,0.1,0.2,0.2c0,0.3-0.5,0.3-0.5,0C16.4,16.6,16.5,16.5,16.6,16.5z"/>
	<path fill="#B0BEC5" d="M36,13.6H14c-0.2,0-0.4,0.2-0.4,0.4v22c0,0.2,0.2,0.4,0.4,0.4h22c0.2,0,0.4-0.2,0.4-0.4V14
		C36.4,13.8,36.2,13.6,36,13.6z M35.6,14.4v4.7H14.4v-4.7H35.6z M14.4,35.6V19.9h21.2v15.7H14.4z"/>
	<path fill="#B0BEC5" d="M25,17.8c0.6,0,1.1-0.5,1.1-1.1c0-0.6-0.5-1.1-1.1-1.1c-0.6,0-1.1,0.5-1.1,1.1C23.9,17.3,24.4,17.8,25,17.8
		z M25,16.5c0.1,0,0.3,0.1,0.3,0.3c0,0.3-0.5,0.3-0.5,0C24.7,16.6,24.8,16.5,25,16.5z"/>
	<path fill="#B0BEC5" d="M20.8,17.8c0.6,0,1.1-0.5,1.1-1.1c0-0.6-0.5-1.1-1.1-1.1c-0.6,0-1.1,0.5-1.1,1.1
		C19.7,17.3,20.2,17.8,20.8,17.8z M20.8,16.5c0.1,0,0.3,0.1,0.3,0.3c0,0.3-0.5,0.3-0.5,0C20.5,16.6,20.6,16.5,20.8,16.5z"/>
</g>
</svg>
