<?xml version="1.0" encoding="utf-8"?>
<!-- Generator: Adobe Illustrator 18.1.1, SVG Export Plug-In . SVG Version: 6.00 Build 0)  -->
<svg version="1.1" id="Layer_1" xmlns="http://www.w3.org/2000/svg" xmlns:xlink="http://www.w3.org/1999/xlink" x="0px" y="0px"
	 viewBox="0 0 50 50" enable-background="new 0 0 50 50" xml:space="preserve">
<g>
	<path fill="#263238" d="M36,30.8h-1V17.4c0-0.2-0.2-0.4-0.4-0.4H15.4c-0.2,0-0.4,0.2-0.4,0.4v13.4h-1c-0.2,0-0.4,0.2-0.4,0.4
		c0,1,0.8,1.8,1.8,1.8h19.3c0,0,0,0,0,0c1,0,1.8-0.8,1.8-1.8C36.4,31,36.2,30.8,36,30.8z M15.8,17.8h18.4v12.9H15.8V17.8z M25,32.2
		c-0.4,0-0.7-0.2-0.9-0.6h1.7C25.7,31.9,25.4,32.2,25,32.2z M14.5,31.6h0.9h7.9c0.1,0.2,0.1,0.4,0.2,0.6h-8.2
		C15,32.2,14.6,31.9,14.5,31.6z M34.6,32.2v0.4V32.2h-8.2c0.1-0.2,0.2-0.4,0.2-0.6h7.9h0.9C35.4,31.9,35,32.2,34.6,32.2z"/>
	<path fill="#263238" d="M33.7,29.8v-11c0-0.2-0.2-0.4-0.4-0.4H16.7c-0.2,0-0.4,0.2-0.4,0.4v11c0,0.2,0.2,0.4,0.4,0.4h16.5
		C33.5,30.2,33.7,30,33.7,29.8z M32.9,29.4H17.2V19.2h15.7V29.4z"/>
</g>
</svg>
