<?xml version="1.0" encoding="utf-8"?>
<!-- Generator: Adobe Illustrator 18.1.1, SVG Export Plug-In . SVG Version: 6.00 Build 0)  -->
<svg version="1.1" id="Layer_1" xmlns="http://www.w3.org/2000/svg" xmlns:xlink="http://www.w3.org/1999/xlink" x="0px" y="0px"
	 viewBox="0 0 50 50" enable-background="new 0 0 50 50" xml:space="preserve">
<g>
	<path fill="#78909C" d="M25,17c-4.4,0-8,3.6-8,8c0,4.4,3.6,8,8,8c4.4,0,7.9-3.6,7.9-8C33,20.6,29.4,17,25,17z M25,32.1
		c-3.9,0-7.1-3.2-7.1-7.1c0-3.9,3.2-7.1,7.1-7.1c3.9,0,7.1,3.2,7.1,7.1C32.1,28.9,28.9,32.1,25,32.1z"/>
	<path fill="#78909C" d="M25.4,24.8V20c0-0.2-0.2-0.4-0.4-0.4c-0.2,0-0.4,0.2-0.4,0.4v5c0,0.1,0,0.2,0.1,0.3l2.4,2.4
		c0.1,0.1,0.2,0.1,0.3,0.1c0.1,0,0.2,0,0.3-0.1c0.2-0.2,0.2-0.4,0-0.6L25.4,24.8z"/>
</g>
</svg>
