<?xml version="1.0" encoding="utf-8"?>
<!-- Generator: Adobe Illustrator 18.1.1, SVG Export Plug-In . SVG Version: 6.00 Build 0)  -->
<svg version="1.1" id="Layer_1" xmlns="http://www.w3.org/2000/svg" xmlns:xlink="http://www.w3.org/1999/xlink" x="0px" y="0px"
	 viewBox="0 0 50 50" enable-background="new 0 0 50 50" xml:space="preserve">
<g>
	<path fill="#78909C" d="M29.1,28.5c-0.1-0.1-0.1-0.1-0.2-0.1c1.5-1.6,2.4-3.7,2.4-6c0-2.4-0.9-4.6-2.6-6.2
		c-1.7-1.7-3.9-2.6-6.2-2.6c-2.4,0-4.6,0.9-6.2,2.6c-1.7,1.7-2.6,3.9-2.6,6.2c0,2.4,0.9,4.6,2.6,6.2c1.7,1.7,3.9,2.6,6.2,2.6
		c2.2,0,4.3-0.9,6-2.4c0,0.1,0,0.2,0.1,0.2l7.1,7.1c0.1,0.1,0.2,0.1,0.3,0.1c0.1,0,0.2,0,0.3-0.1c0.2-0.2,0.2-0.4,0-0.6L29.1,28.5z
		 M28.1,28.1c-1.5,1.5-3.5,2.3-5.7,2.3c-2.1,0-4.1-0.8-5.7-2.3c-1.5-1.5-2.3-3.5-2.3-5.7c0-2.1,0.8-4.1,2.3-5.7
		c1.5-1.5,3.5-2.3,5.7-2.3c2.1,0,4.1,0.8,5.7,2.3c1.5,1.5,2.3,3.5,2.3,5.7C30.4,24.6,29.6,26.6,28.1,28.1z"/>
	<path fill="#78909C" d="M15.8,22.5h0.8c0-3.2,2.6-5.8,5.8-5.8v-0.8C18.8,15.8,15.8,18.8,15.8,22.5z"/>
</g>
</svg>
