<?xml version="1.0" encoding="utf-8"?>
<!-- Generator: Adobe Illustrator 18.1.1, SVG Export Plug-In . SVG Version: 6.00 Build 0)  -->
<svg version="1.1" id="Layer_1" xmlns="http://www.w3.org/2000/svg" xmlns:xlink="http://www.w3.org/1999/xlink" x="0px" y="0px"
	 viewBox="0 0 50 50" enable-background="new 0 0 50 50" xml:space="preserve">
<g>
	<path fill="#263238" d="M16.8,36.5h16.5V13.5H16.8V36.5z M17.6,14.3h14.8v21.3H17.6V14.3z"/>
	<path fill="#263238" d="M29.1,19.1c-0.2,0-0.4,0.2-0.4,0.4V27l-3.4-6.3c0,0-0.1,0-0.1-0.1c0,0,0-0.1-0.1-0.1c0,0,0,0,0,0
		c-0.1,0-0.1,0-0.2,0c-0.1,0-0.1,0-0.1,0c0,0,0,0,0,0c0,0-0.1,0.1-0.1,0.1c0,0-0.1,0-0.1,0.1l-4.1,8.3c-0.1,0.2,0,0.4,0.2,0.5
		c0.1,0,0.1,0,0.2,0c0.1,0,0.3-0.1,0.4-0.2l1.9-3.9h3.8l1.8,3.3V31c0,0.2,0.2,0.4,0.4,0.4c0.2,0,0.4-0.2,0.4-0.4V19.5
		C29.5,19.3,29.4,19.1,29.1,19.1z M23.6,24.6l1.4-2.8l1.5,2.8H23.6z"/>
</g>
</svg>
