<?xml version="1.0" encoding="utf-8"?>
<!-- Generator: Adobe Illustrator 18.1.1, SVG Export Plug-In . SVG Version: 6.00 Build 0)  -->
<svg version="1.1" id="Layer_1" xmlns="http://www.w3.org/2000/svg" xmlns:xlink="http://www.w3.org/1999/xlink" x="0px" y="0px"
	 viewBox="0 0 50 50" enable-background="new 0 0 50 50" xml:space="preserve">
<g>
	<path fill="#B0BEC5" d="M29.3,20.4c0.1,0,0.2,0,0.3-0.1l2.6-2.6c0.2-0.2,0.2-0.4,0-0.6l-2.6-2.6c-0.1-0.1-0.2-0.1-0.3-0.1h-3.9V14
		c0-0.2-0.2-0.4-0.4-0.4c-0.2,0-0.4,0.2-0.4,0.4v0.4h-6.4c-0.2,0-0.3,0.1-0.4,0.3c-0.1,0.2,0,0.3,0.1,0.4l2.3,2.3l-2.3,2.3
		c-0.1,0.1-0.2,0.3-0.1,0.4c0.1,0.2,0.2,0.3,0.4,0.3h6.4v0.9h-3.9c-0.1,0-0.2,0-0.3,0.1l-2.6,2.6c-0.2,0.2-0.2,0.4,0,0.6l2.6,2.6
		c0.1,0.1,0.2,0.1,0.3,0.1h3.9V36c0,0.2,0.2,0.4,0.4,0.4c0.2,0,0.4-0.2,0.4-0.4v-8.8h6.4c0.2,0,0.3-0.1,0.4-0.3
		c0.1-0.2,0-0.3-0.1-0.4l-2.3-2.3l2.3-2.3c0.1-0.1,0.2-0.3,0.1-0.4c-0.1-0.2-0.2-0.3-0.4-0.3h-6.4v-0.9H29.3z M30.9,22.1L29,23.9
		c-0.2,0.2-0.2,0.4,0,0.6l1.9,1.9h-10l-2.2-2.2l2.2-2.2H30.9z M19.1,19.6l1.9-1.9c0.2-0.2,0.2-0.4,0-0.6l-1.9-1.9h10l2.2,2.2
		l-2.2,2.2H19.1z"/>
</g>
</svg>
