<?xml version="1.0" encoding="utf-8"?>
<!-- Generator: Adobe Illustrator 18.1.1, SVG Export Plug-In . SVG Version: 6.00 Build 0)  -->
<svg version="1.1" id="Layer_1" xmlns="http://www.w3.org/2000/svg" xmlns:xlink="http://www.w3.org/1999/xlink" x="0px" y="0px"
	 viewBox="0 0 50 50" enable-background="new 0 0 50 50" xml:space="preserve">
<g>
	<path fill="#263238" d="M24.9,18.2c-3.6,0-6.5,2.9-6.5,6.5c0,2,0.9,3.9,2.5,5.1c0,0,0.1,0.1,0.1,0.1c0,0,0.9,0.6,0.9,1.7
		c0,0,0,0,0,0c0,0,0,0,0,0l1.1,4.9c0,0.2,0.2,0.3,0.4,0.3h3.2c0.2,0,0.4-0.1,0.4-0.3l1.1-4.9c0,0,0,0,0,0c0,0,0,0,0,0
		c0-1.1,0.8-1.6,0.9-1.7c0,0,0.1-0.1,0.1-0.1c1.6-1.3,2.5-3.1,2.5-5.1C31.4,21.1,28.5,18.2,24.9,18.2z M26.1,36.1h-2.5l-0.1-0.4h2.7
		L26.1,36.1z M26.4,34.9h-3l-0.1-0.4h3.2L26.4,34.9z M26.6,33.7h-3.6l-0.4-1.6H27L26.6,33.7z M28.3,29.3
		C28.3,29.3,28.2,29.4,28.3,29.3c-0.4,0.3-1,0.9-1.2,1.9h-1.9v-5.7c0-0.4,0.4-0.8,0.8-0.8c0.2,0,0.4-0.2,0.4-0.4
		c0-0.2-0.2-0.4-0.4-0.4c-0.5,0-0.9,0.2-1.2,0.6c0,0,0-0.1-0.1-0.1c-0.3-0.3-0.7-0.5-1.1-0.5c0,0,0,0,0,0c-0.2,0-0.4,0.2-0.4,0.4
		c0,0.2,0.2,0.4,0.4,0.4c0,0,0,0,0,0c0,0,0,0,0,0c0.2,0,0.4,0.1,0.6,0.2c0.2,0.2,0.2,0.4,0.2,0.6v5.7h-1.9c-0.1-1-0.8-1.6-1.1-1.9
		c0,0-0.1-0.1-0.1-0.1c-1.5-1.1-2.3-2.8-2.3-4.6c0-3.2,2.6-5.7,5.7-5.7c3.2,0,5.7,2.6,5.7,5.7C30.6,26.5,29.7,28.2,28.3,29.3z"/>
	<path fill="#263238" d="M25,16.6c0.2,0,0.4-0.2,0.4-0.4v-2.8c0-0.2-0.2-0.4-0.4-0.4c-0.2,0-0.4,0.2-0.4,0.4v2.8
		C24.6,16.4,24.8,16.6,25,16.6z"/>
	<path fill="#263238" d="M18.9,18.9C19,19,19.1,19,19.2,19c0.1,0,0.2,0,0.3-0.1c0.2-0.2,0.2-0.4,0-0.6l-1.9-1.9
		c-0.2-0.2-0.4-0.2-0.6,0c-0.2,0.2-0.2,0.4,0,0.6L18.9,18.9z"/>
	<path fill="#263238" d="M17.2,24.5c0-0.2-0.2-0.4-0.4-0.4H14c-0.2,0-0.4,0.2-0.4,0.4c0,0.2,0.2,0.4,0.4,0.4h2.8
		C17,24.9,17.2,24.7,17.2,24.5z"/>
	<path fill="#263238" d="M18.9,30l-2,1.9c-0.2,0.2-0.2,0.4,0,0.6c0.1,0.1,0.2,0.1,0.3,0.1c0.1,0,0.2,0,0.3-0.1l1.9-1.9
		c0.2-0.2,0.2-0.4,0-0.6C19.3,29.9,19,29.8,18.9,30z"/>
	<path fill="#263238" d="M31.1,30.4c-0.2-0.2-0.4-0.2-0.6,0c-0.2,0.2-0.2,0.4,0,0.6l1.9,2c0.1,0.1,0.2,0.1,0.3,0.1
		c0.1,0,0.2,0,0.3-0.1c0.2-0.2,0.2-0.4,0-0.6L31.1,30.4z"/>
	<path fill="#263238" d="M36,24.1l-2.8,0c-0.2,0-0.4,0.2-0.4,0.4c0,0.2,0.2,0.4,0.4,0.4l2.8,0c0.2,0,0.4-0.2,0.4-0.4
		C36.4,24.2,36.2,24.1,36,24.1z"/>
	<path fill="#263238" d="M30.8,19c0.1,0,0.2,0,0.3-0.1l1.9-1.9c0.2-0.2,0.2-0.4,0-0.6c-0.2-0.2-0.4-0.2-0.6,0l-1.9,1.9
		c-0.2,0.2-0.2,0.4,0,0.6C30.6,19,30.7,19,30.8,19z"/>
</g>
</svg>
