<?xml version="1.0" encoding="utf-8"?>
<!-- Generator: Adobe Illustrator 18.1.1, SVG Export Plug-In . SVG Version: 6.00 Build 0)  -->
<svg version="1.1" id="Layer_1" xmlns="http://www.w3.org/2000/svg" xmlns:xlink="http://www.w3.org/1999/xlink" x="0px" y="0px"
	 viewBox="0 0 50 50" enable-background="new 0 0 50 50" xml:space="preserve">
<g>
	<path fill="#263238" d="M29.7,19.8l-6.8,2.9c-0.1,0-0.2,0.1-0.2,0.2l-2.9,6.8c-0.1,0.2,0,0.3,0.1,0.5c0.1,0.1,0.2,0.1,0.3,0.1
		c0.1,0,0.1,0,0.2,0l6.8-2.9c0.1,0,0.2-0.1,0.2-0.2l2.9-6.8c0.1-0.2,0-0.3-0.1-0.5C30,19.8,29.8,19.7,29.7,19.8z M20.9,29.1l2.3-5.3
		l3,3L20.9,29.1z M26.8,26.2l-3-3l5.3-2.3L26.8,26.2z"/>
	<path fill="#263238" d="M25,13.6c-6.3,0-11.4,5.1-11.4,11.4c0,6.3,5.1,11.4,11.4,11.4c6.3,0,11.4-5.1,11.4-11.4
		C36.4,18.7,31.3,13.6,25,13.6z M25,35.5c-5.8,0-10.5-4.7-10.5-10.5c0-5.8,4.7-10.5,10.5-10.5c5.8,0,10.5,4.7,10.5,10.5
		C35.5,30.8,30.8,35.5,25,35.5z"/>
	<path fill="#263238" d="M25,16.7c0.3,0,0.6-0.3,0.6-0.6c0-0.3-0.3-0.6-0.6-0.6c-0.3,0-0.6,0.3-0.6,0.6C24.4,16.4,24.7,16.7,25,16.7
		z M25,15.9c0.1,0,0.2,0.1,0.2,0.2c0,0.3-0.5,0.3-0.5,0C24.8,16,24.9,15.9,25,15.9z"/>
	<path fill="#263238" d="M25,33.3c-0.3,0-0.6,0.3-0.6,0.6c0,0.3,0.3,0.6,0.6,0.6c0.3,0,0.6-0.3,0.6-0.6C25.6,33.6,25.3,33.3,25,33.3
		z M24.8,33.9c0-0.1,0.1-0.2,0.2-0.2c0.1,0,0.2,0.1,0.2,0.2C25.2,34.2,24.8,34.2,24.8,33.9z"/>
	<path fill="#263238" d="M33.9,24.4c-0.3,0-0.6,0.3-0.6,0.6c0,0.3,0.3,0.6,0.6,0.6s0.6-0.3,0.6-0.6C34.5,24.7,34.2,24.4,33.9,24.4z
		 M33.7,25c0-0.1,0.1-0.2,0.2-0.2c0.1,0,0.2,0.1,0.2,0.2C34.1,25.3,33.7,25.3,33.7,25z"/>
	<path fill="#263238" d="M16.1,24.4c-0.3,0-0.6,0.3-0.6,0.6c0,0.3,0.3,0.6,0.6,0.6c0.3,0,0.6-0.3,0.6-0.6
		C16.7,24.7,16.4,24.4,16.1,24.4z M15.9,25c0-0.1,0.1-0.2,0.2-0.2c0.1,0,0.2,0.1,0.2,0.2C16.4,25.3,15.9,25.3,15.9,25z"/>
</g>
</svg>
