<?xml version="1.0" encoding="utf-8"?>
<!-- Generator: Adobe Illustrator 18.1.1, SVG Export Plug-In . SVG Version: 6.00 Build 0)  -->
<svg version="1.1" id="Layer_1" xmlns="http://www.w3.org/2000/svg" xmlns:xlink="http://www.w3.org/1999/xlink" x="0px" y="0px"
	 viewBox="0 0 50 50" enable-background="new 0 0 50 50" xml:space="preserve">
<g>
	<path fill="#FFFFFF" d="M16,23c-1.1,0-2,0.9-2,2c0,1.1,0.9,2,2,2c1.1,0,2-0.9,2-2C18,23.9,17.1,23,16,23z M16,26.2
		c-0.6,0-1.2-0.5-1.2-1.2c0-0.6,0.5-1.2,1.2-1.2c0.6,0,1.2,0.5,1.2,1.2C17.1,25.6,16.6,26.2,16,26.2z"/>
	<path fill="#FFFFFF" d="M16,15.1c-1.1,0-2,0.9-2,2c0,1.1,0.9,2,2,2c1.1,0,2-0.9,2-2C18,16,17.1,15.1,16,15.1z M16,18.3
		c-0.6,0-1.2-0.5-1.2-1.2c0-0.6,0.5-1.2,1.2-1.2c0.6,0,1.2,0.5,1.2,1.2C17.1,17.7,16.6,18.3,16,18.3z"/>
	<path fill="#FFFFFF" d="M16,30.9c-1.1,0-2,0.9-2,2c0,1.1,0.9,2,2,2c1.1,0,2-0.9,2-2C18,31.8,17.1,30.9,16,30.9z M16,34.1
		c-0.6,0-1.2-0.5-1.2-1.2c0-0.6,0.5-1.2,1.2-1.2c0.6,0,1.2,0.5,1.2,1.2C17.1,33.6,16.6,34.1,16,34.1z"/>
	<path fill="#FFFFFF" d="M35.6,32.5H20.7c-0.2,0-0.4,0.2-0.4,0.4c0,0.2,0.2,0.4,0.4,0.4h14.9c0.2,0,0.4-0.2,0.4-0.4
		C36,32.7,35.8,32.5,35.6,32.5z"/>
	<path fill="#FFFFFF" d="M35.6,24.6H20.7c-0.2,0-0.4,0.2-0.4,0.4c0,0.2,0.2,0.4,0.4,0.4h14.9c0.2,0,0.4-0.2,0.4-0.4
		C36,24.8,35.8,24.6,35.6,24.6z"/>
	<path fill="#FFFFFF" d="M35.6,16.7H20.7c-0.2,0-0.4,0.2-0.4,0.4c0,0.2,0.2,0.4,0.4,0.4h14.9c0.2,0,0.4-0.2,0.4-0.4
		C36,16.9,35.8,16.7,35.6,16.7z"/>
</g>
</svg>
