<?xml version="1.0" encoding="utf-8"?>
<!-- Generator: Adobe Illustrator 18.1.1, SVG Export Plug-In . SVG Version: 6.00 Build 0)  -->
<svg version="1.1" id="Layer_1" xmlns="http://www.w3.org/2000/svg" xmlns:xlink="http://www.w3.org/1999/xlink" x="0px" y="0px"
	 viewBox="0 0 50 50" enable-background="new 0 0 50 50" xml:space="preserve">
<g>
	<path fill="#FFFFFF" d="M36.4,28.9C36.4,28.9,36.4,28.8,36.4,28.9l-4.1-13.4c-0.1-0.2-0.2-0.3-0.4-0.3h0l-1.4,0
		c-0.2,0-0.4,0.2-0.4,0.4c0,0.2,0.2,0.4,0.4,0.4h0l1.1,0l3.9,12.6h-6.5c-0.1,0-0.2,0-0.3,0.1L25,32.5l-3.8-3.8
		c-0.1-0.1-0.2-0.1-0.3-0.1h-6.3L18.4,16l1.1,0h0c0.2,0,0.4-0.2,0.4-0.4c0-0.2-0.2-0.4-0.4-0.4l-1.4,0h0c-0.2,0-0.3,0.1-0.4,0.3
		l-4.1,13.4c0,0,0,0,0,0.1c0,0,0,0,0,0.1v8.3c0,0.2,0.2,0.4,0.4,0.4h22c0.2,0,0.4-0.2,0.4-0.4L36.4,28.9
		C36.4,28.9,36.4,28.9,36.4,28.9z M35.6,36.8H14.4v-7.4h6.3l4,4c0.1,0.1,0.2,0.1,0.3,0.1c0.1,0,0.2,0,0.3-0.1l3.8-4h6.5V36.8z"/>
	<path fill="#FFFFFF" d="M22.5,15.9l2.1-2.1v15.1c0,0.2,0.2,0.4,0.4,0.4c0.2,0,0.4-0.2,0.4-0.4V13.8l2.1,2.1
		c0.1,0.1,0.2,0.1,0.3,0.1c0.1,0,0.2,0,0.3-0.1c0.2-0.2,0.2-0.4,0-0.6l-2.8-2.8c-0.2-0.2-0.4-0.2-0.6,0L22,15.3
		c-0.2,0.2-0.2,0.4,0,0.6C22.1,16,22.4,16,22.5,15.9z"/>
</g>
</svg>
