<?xml version="1.0" encoding="utf-8"?>
<!-- Generator: Adobe Illustrator 18.1.1, SVG Export Plug-In . SVG Version: 6.00 Build 0)  -->
<svg version="1.1" id="Layer_1" xmlns="http://www.w3.org/2000/svg" xmlns:xlink="http://www.w3.org/1999/xlink" x="0px" y="0px"
	 viewBox="0 0 50 50" enable-background="new 0 0 50 50" xml:space="preserve">
<g>
	<path fill="#78909C" d="M36.4,25l0-0.2c-0.1-6.2-5.2-11.2-11.4-11.2c-3.1,0-5.9,1.2-8.1,3.3c-2.2,2.2-3.4,5-3.4,8.1l0,0.2l0,0
		c0.1,6.2,5.2,11.2,11.4,11.2C31.3,36.4,36.4,31.3,36.4,25z M14.4,25.2l0-0.2c0-2.8,1.1-5.5,3.1-7.5c2-2,4.7-3.1,7.5-3.1
		c5.7,0,10.5,4.7,10.6,10.4l0,0.2c0,5.8-4.8,10.6-10.6,10.6C19.3,35.6,14.5,30.9,14.4,25.2z"/>
	<path fill="#78909C" d="M25.3,30.7l5.4-5.4c0.2-0.2,0.2-0.4,0-0.6c-0.2-0.2-0.4-0.2-0.6,0l-4.7,4.7l0-9.8c0,0,0,0,0,0
		c0-0.2-0.2-0.4-0.4-0.4c-0.2,0-0.4,0.2-0.4,0.4l0,9.8l-4.7-4.7c-0.2-0.2-0.4-0.2-0.6,0c-0.1,0.1-0.1,0.2-0.1,0.3
		c0,0.1,0,0.2,0.1,0.3L25,31L25.3,30.7C25.3,30.7,25.3,30.7,25.3,30.7z"/>
</g>
</svg>
