<?xml version="1.0" encoding="utf-8"?>
<!-- Generator: Adobe Illustrator 18.1.1, SVG Export Plug-In . SVG Version: 6.00 Build 0)  -->
<svg version="1.1" id="Layer_1" xmlns="http://www.w3.org/2000/svg" xmlns:xlink="http://www.w3.org/1999/xlink" x="0px" y="0px"
	 viewBox="0 0 50 50" enable-background="new 0 0 50 50" xml:space="preserve">
<g>
	<path fill="#78909C" d="M25.2,13.6l-0.2,0c-6.2,0-11.3,5-11.4,11.2c-0.1,6.3,4.9,11.5,11.2,11.6l0.2,0c6.2,0,11.3-5,11.4-11.2
		c0.1-3.1-1.1-5.9-3.2-8.1C31.1,14.9,28.3,13.6,25.2,13.6z M25,35.6l-0.2,0c-5.8-0.1-10.5-4.9-10.4-10.8c0.1-5.7,4.9-10.4,10.6-10.4
		l0.2,0c2.8,0,5.5,1.2,7.4,3.2c2,2,3,4.7,3,7.5C35.5,30.9,30.7,35.6,25,35.6z"/>
	<path fill="#78909C" d="M30.5,24.6l-5.1,0l0-5.1c0-0.2-0.2-0.4-0.4-0.4c-0.2,0-0.4,0.2-0.4,0.4l0,5.1l-5.1,0
		c-0.2,0-0.4,0.2-0.4,0.4c0,0.1,0,0.2,0.1,0.3c0.1,0.1,0.2,0.1,0.3,0.1l5.1,0l0,5.1c0,0.1,0,0.2,0.1,0.3c0.1,0.1,0.2,0.1,0.3,0.1
		c0.2,0,0.4-0.2,0.4-0.4l0-5.1l5.1,0c0.2,0,0.4-0.2,0.4-0.4C30.9,24.8,30.7,24.6,30.5,24.6z"/>
</g>
</svg>
