<?xml version="1.0" encoding="utf-8"?>
<!-- Generator: Adobe Illustrator 18.1.1, SVG Export Plug-In . SVG Version: 6.00 Build 0)  -->
<svg version="1.1" id="Layer_1" xmlns="http://www.w3.org/2000/svg" xmlns:xlink="http://www.w3.org/1999/xlink" x="0px" y="0px"
	 viewBox="0 0 50 50" enable-background="new 0 0 50 50" xml:space="preserve">
<g>
	<path fill="#263238" d="M33.1,19.2L33.1,19.2l-5.5-5.5c-0.1-0.1-0.2-0.1-0.3-0.1H17.2c-0.2,0-0.4,0.2-0.4,0.4v22.1
		c0,0.2,0.2,0.4,0.4,0.4h15.6c0.2,0,0.4-0.2,0.4-0.4V19.5C33.2,19.4,33.2,19.3,33.1,19.2z M27.7,14.9l4.1,4.1h-4.1V14.9z M32.4,35.6
		H17.6V14.3h9.3v5.1c0,0.2,0.2,0.4,0.4,0.4h5.1V35.6z"/>
	<path fill="#263238" d="M19.5,23.3c0,0.2,0.2,0.4,0.4,0.4h10.1c0.2,0,0.4-0.2,0.4-0.4c0-0.2-0.2-0.4-0.4-0.4H19.9
		C19.7,22.9,19.5,23.1,19.5,23.3z"/>
	<path fill="#263238" d="M30.1,25.9H19.9c-0.2,0-0.4,0.2-0.4,0.4c0,0.2,0.2,0.4,0.4,0.4h10.1c0.2,0,0.4-0.2,0.4-0.4
		C30.5,26.1,30.3,25.9,30.1,25.9z"/>
	<path fill="#263238" d="M30.1,28.9H19.9c-0.2,0-0.4,0.2-0.4,0.4c0,0.2,0.2,0.4,0.4,0.4h10.1c0.2,0,0.4-0.2,0.4-0.4
		C30.5,29.1,30.3,28.9,30.1,28.9z"/>
	<path fill="#263238" d="M30.1,31.9H19.9c-0.2,0-0.4,0.2-0.4,0.4c0,0.2,0.2,0.4,0.4,0.4h10.1c0.2,0,0.4-0.2,0.4-0.4
		C30.5,32,30.3,31.9,30.1,31.9z"/>
</g>
</svg>
