<?xml version="1.0" encoding="utf-8"?>
<!-- Generator: Adobe Illustrator 18.1.1, SVG Export Plug-In . SVG Version: 6.00 Build 0)  -->
<svg version="1.1" id="Layer_1" xmlns="http://www.w3.org/2000/svg" xmlns:xlink="http://www.w3.org/1999/xlink" x="0px" y="0px"
	 viewBox="0 0 50 50" enable-background="new 0 0 50 50" xml:space="preserve">
<g>
	<path fill="#A9CE03" d="M13.6,25l0,0.2c0.1,6.2,5.2,11.2,11.4,11.2c3.1,0,5.9-1.2,8.1-3.3c2.2-2.2,3.4-5,3.4-8.1l0-0.2l0,0
		c-0.1-6.2-5.2-11.2-11.4-11.2C18.7,13.6,13.6,18.7,13.6,25z M35.6,24.8l0,0.2c0,2.8-1.1,5.5-3.1,7.5c-2,2-4.7,3.1-7.5,3.1
		c-5.7,0-10.5-4.7-10.6-10.4l0-0.2c0-5.8,4.8-10.6,10.6-10.6C30.7,14.4,35.5,19.1,35.6,24.8z"/>
	<path fill="#A9CE03" d="M24.7,19.3l-5.4,5.4c-0.2,0.2-0.2,0.4,0,0.6c0.2,0.2,0.4,0.2,0.6,0l4.7-4.7l0,9.8c0,0,0,0,0,0
		c0,0.2,0.2,0.4,0.4,0.4c0.2,0,0.4-0.2,0.4-0.4l0-9.8l4.7,4.7c0.2,0.2,0.4,0.2,0.6,0c0.1-0.1,0.1-0.2,0.1-0.3c0-0.1,0-0.2-0.1-0.3
		L25,19L24.7,19.3C24.7,19.3,24.7,19.3,24.7,19.3z"/>
</g>
</svg>
