<?xml version="1.0" encoding="utf-8"?>
<!-- Generator: Adobe Illustrator 18.1.1, SVG Export Plug-In . SVG Version: 6.00 Build 0)  -->
<svg version="1.1" id="Layer_1" xmlns="http://www.w3.org/2000/svg" xmlns:xlink="http://www.w3.org/1999/xlink" x="0px" y="0px"
	 viewBox="0 0 50 50" enable-background="new 0 0 50 50" xml:space="preserve">
<g>
	<path fill="#263238" d="M33.3,32.8H16.7c-0.2,0-0.4,0.2-0.4,0.4c0,0.2,0.2,0.4,0.4,0.4h16.5c0.2,0,0.4-0.2,0.4-0.4
		C33.7,33,33.5,32.8,33.3,32.8z"/>
	<path fill="#263238" d="M33.3,27.3H21.8c-0.2,0-0.4,0.2-0.4,0.4c0,0.2,0.2,0.4,0.4,0.4h11.5c0.2,0,0.4-0.2,0.4-0.4
		C33.7,27.5,33.5,27.3,33.3,27.3z"/>
	<path fill="#263238" d="M33.3,21.8H21.9c-0.2,0-0.4,0.2-0.4,0.4c0,0.2,0.2,0.4,0.4,0.4h11.3c0.2,0,0.4-0.2,0.4-0.4
		C33.7,22,33.5,21.8,33.3,21.8z"/>
	<path fill="#263238" d="M33.3,16.3H16.7c-0.2,0-0.4,0.2-0.4,0.4c0,0.2,0.2,0.4,0.4,0.4h16.5c0.2,0,0.4-0.2,0.4-0.4
		C33.7,16.5,33.5,16.3,33.3,16.3z"/>
</g>
</svg>
