<?xml version="1.0" encoding="utf-8"?>
<!-- Generator: Adobe Illustrator 18.1.1, SVG Export Plug-In . SVG Version: 6.00 Build 0)  -->
<svg version="1.1" id="Layer_1" xmlns="http://www.w3.org/2000/svg" xmlns:xlink="http://www.w3.org/1999/xlink" x="0px" y="0px"
	 viewBox="0 0 50 50" enable-background="new 0 0 50 50" xml:space="preserve">
<g>
	<path fill="#B0BEC5" d="M25.2,13.6l-0.2,0c-6.2,0-11.3,5-11.4,11.2c-0.1,6.3,4.9,11.5,11.2,11.6l0.2,0c6.2,0,11.3-5,11.4-11.2
		C36.5,18.9,31.5,13.7,25.2,13.6z M25,35.6l-0.2,0c-5.8-0.1-10.5-4.9-10.4-10.8c0.1-5.7,4.9-10.4,10.6-10.4l0.2,0
		c5.8,0.1,10.5,4.9,10.4,10.8C35.5,30.9,30.7,35.6,25,35.6z"/>
	<path fill="#B0BEC5" d="M29.6,21.9L24,27.3l-3.5-3.7c-0.2-0.2-0.4-0.2-0.6,0c-0.2,0.2-0.2,0.4,0,0.6l3.8,4c0.1,0.1,0.2,0.2,0.3,0.1
		c0.1,0,0.2,0,0.3-0.1l5.9-5.7c0.2-0.2,0.2-0.4,0-0.6C30.1,21.7,29.8,21.7,29.6,21.9z"/>
</g>
</svg>
