<?xml version="1.0" encoding="utf-8"?>
<!-- Generator: Adobe Illustrator 18.1.1, SVG Export Plug-In . SVG Version: 6.00 Build 0)  -->
<svg version="1.1" id="Layer_1" xmlns="http://www.w3.org/2000/svg" xmlns:xlink="http://www.w3.org/1999/xlink" x="0px" y="0px"
	 viewBox="0 0 72.9 45.9" enable-background="new 0 0 72.9 45.9" xml:space="preserve">
<g id="symbol-grey">
	<path fill="#78909C" d="M36.5,45.9c-0.5,0-0.9-0.3-1.2-0.7L17.5,14.8l-15,25c-0.4,0.6-1.2,0.8-1.9,0.5c-0.6-0.4-0.8-1.2-0.5-1.9
		l16.2-27c0.2-0.4,0.7-0.6,1.2-0.7c0.5,0,0.9,0.3,1.2,0.7l17.7,30.4l17.7-30.4c0.2-0.4,0.7-0.7,1.2-0.7c0.6,0,0.9,0.2,1.2,0.7
		l16.2,27c0.4,0.6,0.2,1.5-0.5,1.9c-0.6,0.4-1.5,0.2-1.9-0.5l-15-25L37.6,45.2C37.4,45.6,36.9,45.9,36.5,45.9z"/>
	<path fill="#78909C" d="M36.5,24.3c-6.7,0-12.2-5.5-12.2-12.2S29.8,0,36.5,0s12.2,5.5,12.2,12.2S43.2,24.3,36.5,24.3z M36.5,2.7
		c-5.2,0-9.5,4.2-9.5,9.5s4.2,9.5,9.5,9.5s9.5-4.2,9.5-9.5S41.7,2.7,36.5,2.7z"/>
</g>
<g>
</g>
<g>
</g>
<g>
</g>
<g>
</g>
<g>
</g>
<g>
</g>
<g>
</g>
<g>
</g>
<g>
</g>
<g>
</g>
<g>
</g>
<g>
</g>
<g>
</g>
<g>
</g>
<g>
</g>
</svg>
