<?xml version="1.0" encoding="utf-8"?>
<!-- Generator: Adobe Illustrator 18.1.0, SVG Export Plug-In . SVG Version: 6.00 Build 0)  -->
<!DOCTYPE svg PUBLIC "-//W3C//DTD SVG 1.1//EN" "http://www.w3.org/Graphics/SVG/1.1/DTD/svg11.dtd">
<svg version="1.1" id="Artboards" xmlns="http://www.w3.org/2000/svg" xmlns:xlink="http://www.w3.org/1999/xlink" x="0px" y="0px"
	 viewBox="0 0 255.1 141.7" enable-background="new 0 0 255.1 141.7" xml:space="preserve">
<g id="text-primary">
	<g>
		<path fill="#EB6470" d="M52.2,91.5c5.4,0,9.7,4.3,9.7,9.7c0,5.4-4.3,9.7-9.7,9.7s-9.7-4.3-9.7-9.7C42.5,95.9,46.8,91.5,52.2,91.5z
			 M52.2,109.1c4.3,0,7.8-3.5,7.8-7.8c0-4.3-3.5-7.9-7.8-7.9c-4.3,0-7.8,3.6-7.8,7.9C44.4,105.6,47.9,109.1,52.2,109.1z"/>
		<path fill="#EB6470" d="M67.5,92.3c0-0.3,0.2-0.5,0.5-0.5h6c3.3,0,6,2.7,6,6c0,3.3-2.7,6.1-6,6.1h-4.5v6.3c0,0.3-0.2,0.5-0.5,0.5
			h-1c-0.3,0-0.5-0.2-0.5-0.5V92.3z M73.9,101.8c2.2,0,4.1-1.8,4.1-4.1c0-2.2-1.9-3.9-4.1-3.9h-4.3v8H73.9z"/>
		<path fill="#EB6470" d="M83,109.8l8.4-8.7L83,92.7v-0.5c0-0.2,0.2-0.4,0.4-0.4h10.9c0.2,0,0.4,0.2,0.4,0.4v1.1
			c0,0.2-0.2,0.4-0.4,0.4h-7.8L93,100c0.1,0.1,0.4,0.4,0.4,0.7v0.7c0,0.3-0.3,0.5-0.4,0.7l-6.5,6.7h7.8c0.2,0,0.4,0.2,0.4,0.4v1.1
			c0,0.2-0.2,0.4-0.4,0.4H83.4c-0.2,0-0.4-0.2-0.4-0.4V109.8z"/>
		<path fill="#EB6470" d="M99.9,92c0-0.3,0.2-0.5,0.5-0.5h0.7l12.2,15.2c0,0,0,0,0.1,0V92.3c0-0.3,0.2-0.5,0.5-0.5h0.9
			c0.3,0,0.5,0.2,0.5,0.5v18.2c0,0.3-0.2,0.5-0.5,0.5h-0.5l-12.4-15.5h0v14.7c0,0.3-0.2,0.5-0.5,0.5h-0.9c-0.3,0-0.5-0.2-0.5-0.5V92
			z"/>
	</g>
	<g>
		<path fill="#B9CACB" d="M124.3,91.9c0.1-0.2,0.3-0.4,0.5-0.4h0.4c0.2,0,0.4,0.1,0.5,0.3l5.3,14.9c0.1,0,0.1,0,0.1,0l5.3-14.9
			c0.1-0.2,0.3-0.3,0.5-0.3h0.4c0.2,0,0.4,0.2,0.5,0.4l3.5,18.1c0.1,0.4-0.1,0.6-0.5,0.6h-1.1c-0.2,0-0.4-0.2-0.5-0.4l-2.4-13.9
			c0,0-0.1,0-0.1,0l-5,14.3c-0.1,0.2-0.3,0.3-0.5,0.3h-0.5c-0.2,0-0.4-0.1-0.5-0.3l-5-14.3c0,0-0.1,0-0.1,0l-2.3,13.9
			c0,0.2-0.3,0.4-0.5,0.4h-1.1c-0.4,0-0.6-0.3-0.5-0.6L124.3,91.9z"/>
		<path fill="#B9CACB" d="M145,110l8.2-18.2c0.1-0.2,0.2-0.3,0.5-0.3h0.3c0.2,0,0.4,0.1,0.5,0.3l8.1,18.2c0.2,0.4-0.1,0.7-0.5,0.7
			H161c-0.2,0-0.4-0.2-0.5-0.3l-2-4.5H149l-2,4.5c-0.1,0.1-0.2,0.3-0.5,0.3h-1.1C145.1,110.7,144.9,110.3,145,110z M157.8,104.3
			c-1.3-2.9-2.6-5.9-3.9-8.9h-0.2l-3.9,8.9H157.8z"/>
		<path fill="#B9CACB" d="M168.4,93.6h-4.7c-0.3,0-0.5-0.2-0.5-0.5v-0.8c0-0.3,0.2-0.5,0.5-0.5h11.4c0.3,0,0.5,0.2,0.5,0.5v0.8
			c0,0.3-0.2,0.5-0.5,0.5h-4.7v16.6c0,0.3-0.2,0.5-0.5,0.5h-1c-0.3,0-0.5-0.2-0.5-0.5V93.6z"/>
		<path fill="#B9CACB" d="M180.1,92.3c0-0.3,0.2-0.5,0.5-0.5h1.1c0.3,0,0.5,0.2,0.5,0.5v7.9h11v-7.9c0-0.3,0.2-0.5,0.5-0.5h1.1
			c0.3,0,0.5,0.2,0.5,0.5v17.9c0,0.3-0.2,0.5-0.5,0.5h-1.1c-0.3,0-0.5-0.2-0.5-0.5V102h-11v8.2c0,0.3-0.2,0.5-0.5,0.5h-1.1
			c-0.3,0-0.5-0.2-0.5-0.5V92.3z"/>
		<path fill="#B9CACB" d="M200.9,107.9c0.1-0.2,0.3-0.4,0.4-0.5c0.3-0.4,0.6-0.6,0.9-0.2c0.2,0.2,2.2,2.1,4.6,2.1
			c2.2,0,3.6-1.4,3.6-3c0-1.9-1.6-3-4.7-4.3c-3-1.3-4.7-2.5-4.7-5.6c0-1.8,1.5-4.8,5.7-4.8c2.6,0,4.6,1.4,4.6,1.4
			c0.2,0.1,0.5,0.4,0.2,0.9c-0.1,0.2-0.2,0.4-0.3,0.5c-0.2,0.4-0.5,0.5-0.9,0.2c-0.2-0.1-1.9-1.2-3.5-1.2c-2.9,0-3.7,1.8-3.7,3
			c0,1.8,1.4,2.9,3.6,3.8c3.6,1.5,6,2.9,6,6c0,2.8-2.7,4.9-5.8,4.9c-3.2,0-5.3-1.9-5.7-2.2C200.9,108.6,200.6,108.4,200.9,107.9z"/>
	</g>
</g>
<g id="symbol-primary">
	<path fill="#B9CACB" d="M127.9,76.7c-0.5,0-0.9-0.3-1.2-0.7L109,45.6l-15,25c-0.4,0.6-1.2,0.8-1.9,0.5c-0.6-0.4-0.8-1.2-0.5-1.9
		l16.2-27c0.2-0.4,0.7-0.6,1.2-0.7c0.5,0,0.9,0.3,1.2,0.7l17.7,30.4l17.7-30.4c0.2-0.4,0.7-0.7,1.2-0.7c0.6,0,0.9,0.2,1.2,0.7
		l16.2,27c0.4,0.6,0.2,1.5-0.5,1.9c-0.6,0.4-1.5,0.2-1.9-0.5l-15-25L129.1,76C128.9,76.4,128.4,76.7,127.9,76.7z"/>
	<path fill="#EB6470" d="M127.9,55.1c-6.7,0-12.2-5.5-12.2-12.2s5.5-12.2,12.2-12.2c6.7,0,12.2,5.5,12.2,12.2S134.6,55.1,127.9,55.1
		z M127.9,33.5c-5.2,0-9.5,4.2-9.5,9.5s4.2,9.5,9.5,9.5c5.2,0,9.5-4.2,9.5-9.5S133.1,33.5,127.9,33.5z"/>
</g>
</svg>
